PathFileType	4	(X/Y/Z)	Walk10.trc
DataRate	CameraRate	NumFrames	NumMarkers	Units	OrigDataRate	OrigDataStartFrame	OrigNumFrames
200.000000	200.000000	7	59	mm	200.000000	420	536
Frame#	Times		C7		T10		RBack		LPSI		RPSI		RCAR		LElbowM		LLFC		LTH1		LBHD		RWRR		LUA1		CLAV		RUA1		RElbowM		RFA1		LFA1		RTH3		LCAR		LWRU		RTH4		RTH2		RACR1		LACR1		STRN		RTB4		LWRR		RTB3		RMT1		RWRU		RTB1		RToe		RCAL		RFHD		RLFC		RMT5		RBHD		LFHD		RTB2		LElbow		LTB3		LTH4		LTH3		RTH1		RMMAL		RLMAL		LTH2		RElbow		LTB2		LCAL		LMT1		LLMAL		RASI		LASI		LTB4		LMT5		LMMAL		LToe		LTB1
			X1	Y1	Z1	X2	Y2	Z2	X3	Y3	Z3	X4	Y4	Z4	X5	Y5	Z5	X6	Y6	Z6	X7	Y7	Z7	X8	Y8	Z8	X9	Y9	Z9	X10	Y10	Z10	X11	Y11	Z11	X12	Y12	Z12	X13	Y13	Z13	X14	Y14	Z14	X15	Y15	Z15	X16	Y16	Z16	X17	Y17	Z17	X18	Y18	Z18	X19	Y19	Z19	X20	Y20	Z20	X21	Y21	Z21	X22	Y22	Z22	X23	Y23	Z23	X24	Y24	Z24	X25	Y25	Z25	X26	Y26	Z26	X27	Y27	Z27	X28	Y28	Z28	X29	Y29	Z29	X30	Y30	Z30	X31	Y31	Z31	X32	Y32	Z32	X33	Y33	Z33	X34	Y34	Z34	X35	Y35	Z35	X36	Y36	Z36	X37	Y37	Z37	X38	Y38	Z38	X39	Y39	Z39	X40	Y40	Z40	X41	Y41	Z41	X42	Y42	Z42	X43	Y43	Z43	X44	Y44	Z44	X45	Y45	Z45	X46	Y46	Z46	X47	Y47	Z47	X48	Y48	Z48	X49	Y49	Z49	X50	Y50	Z50	X51	Y51	Z51	X52	Y52	Z52	X53	Y53	Z53	X54	Y54	Z54	X55	Y55	Z55	X56	Y56	Z56	X57	Y57	Z57	X58	Y58	Z58	X59	Y59	Z59

420	2.1	523.35	1329.4	26.122	499.69	1063.9	17.898	510.89	1231.3	158.48	481.83	867.73	-28.158	471.57	889.02	68.627	813.09	762.1	295.12	523.93	948.98	-174.8	776	447.9	-115.09	674.61	720.84	-170.27	535.01	1461.4	-46.234	814.89	806.16	247.65	584.97	1097.2	-227.54	651.32	1256.5	23.587	643.98	1122.7	255.99	608.52	931.44	226.61	697.64	860.73	295.68	552.68	865.95	-286.03	552.15	544.15	182.72	617.57	705	-335.72	569.62	745.1	-315.97	573.05	633.91	208.76	643.78	629.31	176.27	608.99	1274.8	175.88	596.29	1266.5	-141.55	716.14	1151.6	18.875	501.71	232.53	71.917	638.05	741.12	-287.15	484.04	140.12	65.988	522.83	40.416	40.595	755.85	767.07	270.37	530.92	319.82	73.279	582.3	23.313	47.613	371.45	49.771	92.382	713.62	1494.5	45.32	542.13	444.25	161.94	506.55	31.64	98.485	537.81	1469.2	76.92	707.04	1484.8	-31.499	485.97	233.82	142.9	541.5	982.7	-243.27	908.08	185.24	-34.992	719.5	641.25	-147.3	758.43	557.75	-125.25	595	716.49	236.44	430.7	74.623	30.551	436.68	66.227	111.35	770.46	680.84	-111.66	653.54	980.76	296.86	840.98	257.63	-102.35	871.11	26.046	-21.058	1007.5	98.137	-42.542	893.18	73.121	-70.781	569.93	876.86	163.3	688	840.84	-137.14	871.97	269.33	-39.414	986.32	70.893	-91.436	920.55	88.922	1.6243	1052.7	101.55	-64.511	853.62	359.55	-43.486
421	2.105	529.09	1328.4	25.284	505.46	1062.8	17.178	516.44	1230.3	157.69	487.9	866.76	-28.93	477.31	888.21	67.753	820.06	761.66	294.2	529.26	947.85	-175.17	781.63	446.63	-114.98	679.95	719.37	-170.35	541.07	1460.4	-47.072	821.59	805.65	246.66	590.39	1096.1	-228.13	657.11	1255.5	22.968	649.93	1121.9	255.33	614.86	930.43	226.21	704.39	860.03	295.06	557.56	864.81	-286.48	556	543.61	182.67	621.92	703.69	-336.27	574.11	743.92	-316.47	577.17	633.27	208.8	648.1	628.29	176.78	614.49	1273.8	175.22	602.23	1265.3	-142.27	721.9	1150.6	18.528	503.67	232.28	71.693	642.54	739.71	-287.67	485.06	140.06	65.779	522.93	40.481	40.4	762.75	766.45	269.63	533.73	319.24	73.167	582.33	23.338	47.566	371.57	50.704	92.171	719.66	1493.2	44.608	545.63	443.72	161.85	506.6	31.737	98.264	543.8	1468.2	76.085	713.11	1483.5	-32.247	487.81	233.78	142.73	546.71	981.56	-243.68	917.64	185.74	-35.054	724.91	639.79	-147.41	763.88	556.26	-125.15	599.37	715.79	236.49	431.09	75.108	30.357	436.99	66.687	111.18	775.94	679.41	-111.92	660.1	979.95	296.21	849.81	257.47	-102.48	882.99	25.748	-22.009	1018.6	99.812	-42.441	904.73	73.476	-71.408	577.79	876.55	162.4	693.69	839.56	-137.07	880.21	269.36	-39.294	998.01	72.657	-91.599	931.37	89.389	1.26	1063.9	103.94	-64.002	860.41	359.36	-43.06
422	2.11	534.85	1327.3	24.406	511.27	1061.7	16.447	522	1229.3	156.87	494.01	865.84	-29.7	483.11	887.41	66.896	826.94	761.22	293.3	534.66	946.73	-175.54	787.34	445.44	-114.87	685.36	717.99	-170.41	547.13	1459.4	-47.939	828.21	805.14	245.67	595.85	1094.9	-228.76	662.91	1254.4	22.316	655.86	1121	254.66	621.16	929.46	225.77	711.08	859.34	294.42	562.47	863.69	-286.93	559.92	543.08	182.6	626.32	702.39	-336.81	578.65	742.77	-316.96	581.37	632.64	208.82	652.49	627.29	177.27	620	1272.8	174.53	608.19	1264.1	-143.02	727.68	1149.6	18.148	505.69	232.05	71.476	647.07	738.32	-288.18	486.11	140.05	65.585	523.05	40.556	40.222	769.55	765.84	268.88	536.61	318.67	73.043	582.37	23.362	47.51	371.72	51.713	92.004	725.69	1492	43.88	549.23	443.2	161.74	506.66	31.848	98.069	549.79	1467.2	75.222	719.18	1482.2	-33.015	489.73	233.77	142.57	551.96	980.43	-244.09	926.67	186.12	-35.039	730.4	638.43	-147.51	769.42	554.88	-125.04	603.8	715.1	236.52	431.48	75.645	30.194	437.33	67.193	111.03	781.51	678.07	-112.19	666.61	979.16	295.53	858.3	257.3	-102.56	894.01	25.483	-22.895	1029	101.21	-42.231	915.52	73.779	-71.957	586.06	876.25	161.49	699.07	838.36	-136.98	888.12	269.31	-39.124	1008.9	74.165	-91.646	941.44	89.746	0.98157	1074.3	105.93	-63.375	867.07	359.11	-42.604
423	2.115	540.62	1326.4	23.491	517.11	1060.6	15.708	527.58	1228.4	156	500.15	864.95	-30.462	488.96	886.62	66.058	833.74	760.79	292.4	540.13	945.64	-175.89	793.14	444.35	-114.77	690.86	716.71	-170.45	553.19	1458.4	-48.833	834.77	804.62	244.69	601.35	1093.8	-229.4	668.74	1253.5	21.631	661.77	1120.2	253.96	627.43	928.54	225.28	717.69	858.69	293.75	567.43	862.59	-287.37	563.94	542.55	182.51	630.77	701.12	-337.34	583.23	741.63	-317.44	585.65	632.02	208.84	656.94	626.32	177.73	625.53	1271.9	173.81	614.17	1263	-143.8	733.49	1148.6	17.732	507.75	231.85	71.268	651.66	736.96	-288.69	487.18	140.07	65.405	523.18	40.643	40.064	776.28	765.25	268.13	539.56	318.11	72.908	582.4	23.385	47.446	371.9	52.804	91.885	731.72	1490.8	43.135	552.93	442.68	161.64	506.74	31.973	97.904	555.77	1466.3	74.331	725.25	1481	-33.801	491.71	233.79	142.42	557.25	979.33	-244.51	935.18	186.36	-34.943	735.98	637.17	-147.59	775.07	553.62	-124.93	608.31	714.43	236.53	431.9	76.237	30.064	437.69	67.746	110.92	787.19	676.84	-112.46	673.08	978.42	294.83	866.46	257.1	-102.6	904.16	25.232	-23.707	1038.7	102.29	-41.907	925.54	74.009	-72.421	594.72	875.96	160.56	704.11	837.27	-136.89	895.69	269.18	-38.901	1019	75.385	-91.568	950.76	89.972	0.79427	1084.1	107.5	-62.626	873.6	358.79	-42.121
424	2.12	546.41	1325.4	22.539	522.98	1059.6	14.964	533.2	1227.5	155.11	506.33	864.11	-31.213	494.87	885.85	65.244	840.43	760.35	291.52	545.65	944.58	-176.25	799.04	443.36	-114.66	696.48	715.56	-170.48	559.25	1457.5	-49.755	841.24	804.11	243.71	606.9	1092.8	-230.06	674.59	1252.5	20.912	667.67	1119.5	253.24	633.67	927.67	224.75	724.23	858.05	293.06	572.43	861.51	-287.81	568.05	542.03	182.41	635.26	699.88	-337.85	587.86	740.52	-317.9	590.02	631.42	208.85	661.47	625.38	178.15	631.08	1271	173.05	620.18	1261.9	-144.61	739.33	1147.7	17.278	509.87	231.67	71.071	656.3	735.63	-289.2	488.29	140.13	65.242	523.32	40.74	39.926	782.91	764.67	267.37	542.57	317.57	72.762	582.43	23.404	47.371	372.1	53.983	91.818	737.74	1489.7	42.377	556.74	442.17	161.53	506.84	32.112	97.77	561.74	1465.4	73.414	731.31	1479.9	-34.604	493.78	233.82	142.28	562.59	978.25	-244.93	943.18	186.45	-34.766	741.66	636.03	-147.65	780.83	552.47	-124.81	612.9	713.77	236.53	432.34	76.888	29.972	438.1	68.351	110.83	792.98	675.73	-112.71	679.49	977.71	294.1	874.29	256.87	-102.58	913.45	24.982	-24.437	1047.6	103.03	-41.468	934.81	74.145	-72.793	603.76	875.67	159.61	708.75	836.28	-136.79	902.94	268.95	-38.625	1028.3	76.29	-91.362	959.34	90.049	0.70124	1093.1	108.61	-61.755	880	358.4	-41.61
425	2.125	552.22	1324.5	21.55	528.9	1058.6	14.216	538.85	1226.7	154.19	512.53	863.32	-31.95	500.83	885.1	64.455	847.03	759.92	290.64	551.25	943.55	-176.59	805.04	442.47	-114.55	702.21	714.53	-170.5	565.31	1456.6	-50.703	847.65	803.6	242.75	612.5	1091.7	-230.74	680.46	1251.6	20.157	673.55	1118.8	252.51	639.87	926.86	224.17	730.7	857.45	292.35	577.48	860.45	-288.24	572.27	541.52	182.31	639.8	698.66	-338.36	592.54	739.43	-318.35	594.49	630.82	208.84	666.08	624.46	178.53	636.67	1270.2	172.26	626.2	1260.9	-145.46	745.19	1146.8	16.783	512.05	231.52	70.887	660.99	734.34	-289.71	489.44	140.25	65.096	523.47	40.846	39.809	789.46	764.12	266.61	545.66	317.04	72.608	582.46	23.419	47.285	372.35	55.255	91.804	743.75	1488.7	41.603	560.67	441.67	161.42	506.97	32.264	97.666	567.71	1464.5	72.471	737.36	1478.8	-35.423	495.93	233.89	142.15	567.97	977.2	-245.35	950.67	186.38	-34.508	747.46	635.02	-147.69	786.7	551.46	-124.69	617.59	713.13	236.5	432.8	77.605	29.918	438.55	69.011	110.79	798.88	674.75	-112.95	685.84	977.04	293.35	881.78	256.59	-102.5	921.89	24.724	-25.082	1055.8	103.42	-40.912	943.31	74.173	-73.068	613.17	875.39	158.64	712.97	835.4	-136.69	909.88	268.64	-38.297	1036.9	76.859	-91.028	967.18	89.964	0.70343	1101.4	109.24	-60.765	886.28	357.95	-41.076
426	2.13	558.04	1323.7	20.525	534.86	1057.7	13.469	544.53	1225.9	153.23	518.77	862.58	-32.668	506.85	884.38	63.694	853.53	759.49	289.78	556.91	942.55	-176.94	811.13	441.68	-114.44	708.08	713.63	-170.51	571.37	1455.8	-51.677	853.98	803.1	241.81	618.15	1090.7	-231.44	686.36	1250.8	19.368	679.41	1118.1	251.76	646.03	926.12	223.55	737.08	856.88	291.61	582.57	859.43	-288.66	576.61	541.01	182.19	644.39	697.46	-338.86	597.26	738.37	-318.79	599.07	630.24	208.82	670.79	623.58	178.88	642.28	1269.5	171.44	632.24	1259.8	-146.33	751.09	1146	16.247	514.28	231.4	70.717	665.74	733.08	-290.22	490.62	140.41	64.968	523.64	40.963	39.713	795.91	763.58	265.84	548.83	316.54	72.445	582.48	23.429	47.187	372.64	56.628	91.844	749.75	1487.7	40.817	564.72	441.17	161.31	507.12	32.431	97.595	573.66	1463.7	71.503	743.41	1477.9	-36.256	498.17	233.98	142.04	573.4	976.18	-245.78	957.67	186.15	-34.171	753.37	634.13	-147.7	792.71	550.57	-124.55	622.37	712.51	236.46	433.3	78.39	29.904	439.05	69.733	110.78	804.9	673.88	-113.16	692.13	976.41	292.58	888.96	256.27	-102.37	929.48	24.453	-25.638	1063.3	103.43	-40.242	951.08	74.084	-73.246	622.93	875.12	157.66	716.72	834.64	-136.59	916.51	268.23	-37.919	1044.6	77.081	-90.566	974.33	89.71	0.79951	1109.1	109.37	-59.661	892.45	357.42	-40.52
